{
	"asset":{
		"generator":"Khronos glTF Blender I/O v3.6.27",
		"version":"2.0"
	},
	"scene":0,
	"scenes":[
		{
			"name":"Scene",
			"nodes":[
				0,
				1,
				2
			]
		}
	],
	"nodes":[
		{
			"mesh":0,
			"name":"Tessuto"
		},
		{
			"mesh":1,
			"name":"Metal"
		},
		{
			"mesh":2,
			"name":"Impunture"
		}
	],
	"meshes":[
		{
			"name":"Tessuto",
			"primitives":[
				{
					"attributes":{
						"POSITION":0,
						"NORMAL":1,
						"TEXCOORD_0":2
					},
					"indices":3
				}
			]
		},
		{
			"name":"Metal",
			"primitives":[
				{
					"attributes":{
						"POSITION":4,
						"NORMAL":5,
						"TEXCOORD_0":6
					},
					"indices":7
				}
			]
		},
		{
			"name":"Impunture",
			"primitives":[
				{
					"attributes":{
						"POSITION":8,
						"NORMAL":9,
						"TEXCOORD_0":10
					},
					"indices":11
				}
			]
		}
	],
	"accessors":[
		{
			"bufferView":0,
			"componentType":5126,
			"count":125738,
			"max":[
				0.25063982605934143,
				0.5112564563751221,
				0.06957347691059113
			],
			"min":[
				-0.2505899965763092,
				0.005893184803426266,
				-0.07571500539779663
			],
			"type":"VEC3"
		},
		{
			"bufferView":1,
			"componentType":5126,
			"count":125738,
			"type":"VEC3"
		},
		{
			"bufferView":2,
			"componentType":5126,
			"count":125738,
			"type":"VEC2"
		},
		{
			"bufferView":3,
			"componentType":5125,
			"count":700140,
			"type":"SCALAR"
		},
		{
			"bufferView":4,
			"componentType":5126,
			"count":258119,
			"max":[
				0.24550840258598328,
				0.3306533992290497,
				0.09679877758026123
			],
			"min":[
				-0.3207593560218811,
				0.0009277793578803539,
				-0.12138332426548004
			],
			"type":"VEC3"
		},
		{
			"bufferView":5,
			"componentType":5126,
			"count":258119,
			"type":"VEC3"
		},
		{
			"bufferView":6,
			"componentType":5126,
			"count":258119,
			"type":"VEC2"
		},
		{
			"bufferView":7,
			"componentType":5125,
			"count":1337376,
			"type":"SCALAR"
		},
		{
			"bufferView":8,
			"componentType":5126,
			"count":365488,
			"max":[
				0.25120943784713745,
				0.505980372428894,
				0.057580433785915375
			],
			"min":[
				-0.2509840130805969,
				0.0054115899838507175,
				-0.063960000872612
			],
			"type":"VEC3"
		},
		{
			"bufferView":9,
			"componentType":5126,
			"count":365488,
			"type":"VEC3"
		},
		{
			"bufferView":10,
			"componentType":5126,
			"count":365488,
			"type":"VEC2"
		},
		{
			"bufferView":11,
			"componentType":5125,
			"count":1882608,
			"type":"SCALAR"
		}
	],
	"bufferViews":[
		{
			"buffer":0,
			"byteLength":1508856,
			"byteOffset":0,
			"target":34962
		},
		{
			"buffer":0,
			"byteLength":1508856,
			"byteOffset":1508856,
			"target":34962
		},
		{
			"buffer":0,
			"byteLength":1005904,
			"byteOffset":3017712,
			"target":34962
		},
		{
			"buffer":0,
			"byteLength":2800560,
			"byteOffset":4023616,
			"target":34963
		},
		{
			"buffer":0,
			"byteLength":3097428,
			"byteOffset":6824176,
			"target":34962
		},
		{
			"buffer":0,
			"byteLength":3097428,
			"byteOffset":9921604,
			"target":34962
		},
		{
			"buffer":0,
			"byteLength":2064952,
			"byteOffset":13019032,
			"target":34962
		},
		{
			"buffer":0,
			"byteLength":5349504,
			"byteOffset":15083984,
			"target":34963
		},
		{
			"buffer":0,
			"byteLength":4385856,
			"byteOffset":20433488,
			"target":34962
		},
		{
			"buffer":0,
			"byteLength":4385856,
			"byteOffset":24819344,
			"target":34962
		},
		{
			"buffer":0,
			"byteLength":2923904,
			"byteOffset":29205200,
			"target":34962
		},
		{
			"buffer":0,
			"byteLength":7530432,
			"byteOffset":32129104,
			"target":34963
		}
	],
	"buffers":[
		{
			"byteLength":39659536,
			"uri":"Borsa.bin"
		}
	]
}
